<?xml version="1.0" encoding="utf-8"?>
<!-- Generator: Adobe Illustrator 16.0.0, SVG Export Plug-In . SVG Version: 6.00 Build 0)  -->
<!DOCTYPE svg PUBLIC "-//W3C//DTD SVG 1.1//EN" "http://www.w3.org/Graphics/SVG/1.1/DTD/svg11.dtd">
<svg version="1.1" id="Layer_1" xmlns="http://www.w3.org/2000/svg" xmlns:xlink="http://www.w3.org/1999/xlink" x="0px" y="0px"
	 width="512px" height="512px" viewBox="0 0 512 512" enable-background="new 0 0 512 512" xml:space="preserve">
<path fill="#FFFFFF" d="M0,256a256,256 0 1,0 512,0a256,256 0 1,0 -512,0" />
<g>
	<path fill="#0000FF" d="M425.518,194.986l38.397-12.547c0.379-0.096,0.652-0.178,1.048-0.178c0.466,0,0.944,0.178,1.398,0.375
		c0.757,0.376,1.34,1.043,1.62,1.896c5.112,15.779,8.469,32.31,10.076,49.039c0.104,0.859-0.187,1.703-0.758,2.373
		c-0.582,0.655-1.34,1.127-2.167,1.235l-40.319,3.517h-0.269c-1.713,0-3.122-1.24-3.239-2.946
		c-1.233-13.214-3.866-26.227-7.862-38.679C422.861,197.354,423.805,195.56,425.518,194.986z"/>
	<path fill="#0000FF" d="M91.148,104.999c9.602-11.118,21.485-21.761,37.355-33.259c0.574-0.478,1.235-0.661,1.905-0.661
		c0.189,0,0.375,0,0.564,0.102c0.865,0.093,1.617,0.571,2.094,1.328l23.381,32.979c0.955,1.514,0.669,3.518-0.757,4.56
		c-8.833,6.366-20.148,15.209-29.562,26.225c-0.571,0.661-1.328,1.042-2.181,1.132h-0.294c-0.763,0-1.526-0.288-2.097-0.859
		l-30.129-26.984C90.097,108.327,90.027,106.329,91.148,104.999z"/>
	<path fill="#0000FF" d="M73.009,373.635c-0.574,0.285-1.139,0.477-1.809,0.477c-1.048,0-2.094-0.477-2.659-1.426
		C45.923,338.005,33.938,296.85,33.938,253.62c0-43.235,11.883-84.382,34.506-119.065c0.574-0.955,1.616-1.526,2.656-1.526
		c0.667,0,1.232,0.184,1.806,0.47l34.13,21.673c0.757,0.477,1.235,1.234,1.418,2.09c0.192,0.862,0,1.712-0.478,2.475
		c-36.021,55.211-36.021,132.461,0.102,187.681c0.472,0.757,0.661,1.613,0.472,2.458c-0.187,0.867-0.661,1.619-1.421,2.108
		L73.009,373.635z"/>
	<path fill="#0000FF" d="M156.824,401.757l-23.195,33.073c-0.574,0.757-1.331,1.234-2.185,1.426h-0.472
		c-0.667,0-1.334-0.19-1.902-0.57c-15.969-11.595-27.849-22.146-37.445-33.259c-1.229-1.339-1.045-3.331,0.286-4.564l29.943-27.093
		c0.571-0.57,1.424-0.851,2.182-0.851c0.102,0,0.102,0,0.192,0c0.859,0.093,1.713,0.472,2.284,1.13
		c9.316,10.926,20.722,19.76,29.555,26.225C157.493,398.339,157.785,400.33,156.824,401.757z"/>
	<path fill="#0000FF" d="M162.424,52.066c13.31-6.458,28.423-11.595,47.432-16.053c0.28,0,0.472-0.102,0.757-0.102
		c0.574,0,1.235,0.184,1.707,0.571c0.763,0.375,1.241,1.142,1.43,1.997l8.461,39.535c0.375,1.709-0.664,3.416-2.376,3.893
		c-15.687,3.704-27.275,7.591-37.445,12.638c-0.472,0.285-0.95,0.375-1.424,0.375c-0.375,0-0.757-0.096-1.045-0.187
		c-0.859-0.286-1.521-0.94-1.902-1.703l-17.102-36.593C160.159,54.827,160.813,52.925,162.424,52.066z"/>
	<path fill="#0000FF" d="M214.432,468.561c-0.186,0.862-0.757,1.62-1.421,2.098c-0.571,0.373-1.138,0.576-1.806,0.576
		c-0.192,0-0.478-0.1-0.763-0.1c-19.009-4.473-34.12-9.592-47.426-15.975c-1.617-0.856-2.277-2.754-1.52-4.361l17.017-36.585
		c0.375-0.861,1.042-1.433,1.896-1.712c0.286-0.187,0.667-0.187,1.043-0.187c0.478,0,0.949,0.1,1.427,0.284
		c10.17,4.944,21.668,8.835,37.445,12.639c1.707,0.372,2.761,2.096,2.374,3.803L214.432,468.561L214.432,468.561z"/>
	<path fill="#0000FF" d="M453.838,356.814C417.34,428.179,338.75,476.073,258.343,476.073c-3.518,0-7.217-0.101-10.735-0.291
		c-1.809-0.094-3.131-1.619-3.043-3.319l1.616-40.388c0-0.861,0.376-1.706,1.052-2.282c0.565-0.571,1.331-0.868,2.181-0.868
		c0,0,0.096,0,0.192,0c2.755,0.104,5.592,0.198,8.453,0.198c63.396,0,125.368-37.825,154.179-94.071
		c0.373-0.757,1.124-1.333,1.881-1.618c0.38-0.094,0.67-0.192,1.05-0.192c0.477,0,1.054,0.192,1.514,0.38l35.742,18.816
		C454.024,353.298,454.607,355.197,453.838,356.814L453.838,356.814z"/>
	<path fill="#0000FF" d="M468.283,321.839c-0.279,0.757-0.851,1.524-1.619,1.894c-0.465,0.19-1.036,0.297-1.515,0.297
		c-0.372,0-0.677,0-1.049-0.105l-38.386-12.451c-1.725-0.57-2.656-2.375-2.18-4.088c4.09-12.822,6.651-25.846,7.782-38.669
		c0.197-1.713,1.632-3.053,3.237-3.053c0.095,0,0.199,0.112,0.271,0.112l40.308,3.416c0.862,0.095,1.619,0.468,2.179,1.125
		c0.57,0.67,0.851,1.52,0.758,2.375C476.647,289.051,473.328,305.596,468.283,321.839z"/>
</g>
</svg>
